<svg id="Layer_1" enable-background="new 0 0 512.012 512.012" height="512" viewBox="0 0 512.012 512.012" width="512" xmlns="http://www.w3.org/2000/svg"><g><path d="m334.289 341.511h-43.28v50.354c0 16.485-13.411 29.896-29.896 29.896h-10.213c-16.485 0-29.896-13.412-29.896-29.896v-50.354h-43.28c-63.33 0-114.853 51.522-114.853 114.853v55.648h386.271v-55.648c0-63.33-51.523-114.853-114.853-114.853z" fill="#ff884d"/><path d="m449.142 456.364c0-63.33-51.522-114.853-114.853-114.853h-43.28v50.354c0 16.485-13.411 29.896-29.896 29.896h-5.106v90.25h193.136v-55.647z" fill="#fd6717"/><path d="m191.003 341.511v50.354c0 33.027 26.869 59.896 59.896 59.896h10.213c33.027 0 59.896-26.87 59.896-59.896v-50.354z" fill="#eb8"/><path d="m256.006 341.511v110.251h5.106c33.027 0 59.896-26.87 59.896-59.896v-50.354h-65.002z" fill="#e3a76f"/><path d="m386.356 159.656h-34.702v89.084h34.702c24.561 0 44.542-19.981 44.542-44.542 0-24.56-19.981-44.542-44.542-44.542z" fill="#eb8"/><path d="m386.356 159.656h-34.702v89.084h34.702c24.561 0 44.542-19.981 44.542-44.542 0-24.56-19.981-44.542-44.542-44.542z" fill="#e3a76f"/><path d="m81.113 204.199c0 24.561 19.981 44.542 44.542 44.542h34.702v-89.084h-34.702c-24.56-.001-44.542 19.981-44.542 44.542z" fill="#eb8"/><path d="m130.357 116.456v129.407c0 69.283 56.365 125.648 125.648 125.648s125.648-56.366 125.648-125.648v-129.407z" fill="#f2d1a5"/><path d="m256.006 116.456v255.056c69.283 0 125.648-56.366 125.648-125.648v-129.408z" fill="#eb8"/><g><path d="m293.673 195.159h30v30.002h-30z" fill="#373c41"/></g><g><path d="m188.339 195.159h30v30.002h-30z" fill="#373c41"/></g><g><path d="m256.006 320.501c-25.641 0-46.5-20.86-46.5-46.5h30c0 9.098 7.402 16.5 16.5 16.5s16.5-7.402 16.5-16.5h30c0 25.64-20.86 46.5-46.5 46.5z" fill="#eb8"/></g><path d="m100.355 0v81.687c0 39.293 31.968 71.261 71.261 71.261h210.038v-51.703c0-39.293-31.968-71.261-71.261-71.261h-150.054c-16.533 0-29.983-13.451-29.983-29.983h-30.001z" fill="#b46e5a"/><g><path d="m293.673 195.159h30v30.002h-30z" fill="#292d31"/></g><path d="m381.654 101.244c0-39.293-31.968-71.261-71.261-71.261h-54.388v122.964h125.648v-51.703z" fill="#915041"/><path d="m302.506 274.001h-30c0 9.098-7.402 16.5-16.5 16.5v30c25.64 0 46.5-20.86 46.5-46.5z" fill="#e3a76f"/></g></svg>